# xmcd CD database file
#
# Track frame offsets:
#	150
#	16044
#	21050
#	30212
#	43504
#	59582
#	69561
#	80100
#	99824
#	114274
#	126745
#	137735
#	160868
#	169977
#
# Disc length: 2444 seconds
#
# Revision: 0
# Processed by: cddbd v1.5.2PL0 Copyright (c) Steve Scherf et al.
# Submitted via: CDex 1.51
#
DISCID=b1098a0e
DTITLE=Marilyn Monroe - Diamonds Are A Girl's Best Friend
DYEAR=2007
DGENRE=Jazz
TTITLE0=Diamonds Are A Girl's Best Friend
TTITLE1=Runnin' Wild
TTITLE2=One Silver Dollar
TTITLE3=Every Baby Needs A Da-Da-Daddy
TTITLE4=Lazy
TTITLE5=River Of No Return
TTITLE6=A Fine Romance
TTITLE7=Heat Wave
TTITLE8=Do It Again
TTITLE9=She Acts Like A Woman Should
TTITLE10=Down In The Meadow
TTITLE11=My Heart Belongs To Daddy
TTITLE12=Bye Bye Baby
TTITLE13=Kiss
EXTD=YEAR: 2007
EXTT0=
EXTT1=
EXTT2=
EXTT3=
EXTT4=
EXTT5=
EXTT6=
EXTT7=
EXTT8=
EXTT9=
EXTT10=
EXTT11=
EXTT12=
EXTT13=
PLAYORDER=
